<?xml version="1.0" standalone="no"?>
<!DOCTYPE svg PUBLIC "-//W3C//DTD SVG 20010904//EN"
 "http://www.w3.org/TR/2001/REC-SVG-20010904/DTD/svg10.dtd">
<svg version="1.0" xmlns="http://www.w3.org/2000/svg"
 width="700.000000pt" height="700.000000pt" viewBox="0 0 700.000000 700.000000"
 preserveAspectRatio="xMidYMid meet">
<metadata>
Created by potrace 1.14, written by Peter Selinger 2001-2017
</metadata>
<g transform="translate(0.000000,700.000000) scale(0.100000,-0.100000)"
fill="#000000" stroke="none">
<path d="M4396 6380 c-247 -143 -450 -260 -452 -260 -2 0 -115 -66 -154 -90
-15 -9 -206 -119 -270 -155 -55 -32 -384 -222 -503 -292 -60 -35 -112 -63
-115 -63 -12 -1 -49 -35 -61 -57 -7 -15 -11 -120 -11 -343 0 -274 -2 -324 -16
-345 -16 -25 -56 -43 -89 -40 -11 1 -123 61 -250 134 -126 74 -250 145 -275
159 -25 14 -59 25 -77 24 -20 -1 -87 -34 -190 -93 -87 -50 -176 -102 -198
-114 -22 -13 -123 -71 -225 -130 -102 -59 -205 -119 -229 -133 -25 -14 -68
-38 -95 -55 -28 -16 -67 -39 -86 -50 -87 -49 -583 -335 -750 -432 -102 -59
-197 -114 -211 -122 -57 -29 -54 50 -54 -1214 l0 -1169 25 -24 c14 -13 425
-254 915 -536 490 -282 901 -520 915 -529 24 -15 53 -31 125 -70 20 -10 50
-18 68 -17 21 1 125 55 307 160 151 88 473 274 715 414 242 140 456 264 475
274 227 129 508 294 520 306 13 13 16 69 20 351 5 350 8 373 49 386 56 18 67
14 250 -92 103 -58 228 -131 279 -161 112 -66 136 -68 225 -16 34 20 78 46 97
57 34 19 289 166 585 337 83 48 240 139 350 202 110 64 288 166 395 228 107
62 204 118 215 124 165 91 278 164 289 185 11 21 13 242 12 1182 -1 1276 5
1170 -66 1214 -19 12 -55 33 -80 47 -25 14 -69 39 -98 57 -29 17 -57 31 -62
31 -6 0 -10 5 -10 10 0 6 -4 10 -9 10 -5 0 -118 63 -252 141 -133 77 -261 150
-283 163 -23 13 -156 89 -296 171 -140 81 -271 157 -290 168 -19 10 -118 68
-220 127 -175 101 -274 157 -330 187 -14 7 -36 13 -50 13 -14 0 -216 -111
-474 -260z m667 -223 c89 -52 182 -105 207 -119 25 -14 79 -45 120 -69 41 -24
88 -51 103 -59 45 -23 76 -66 71 -96 -4 -23 -39 -92 -131 -259 -18 -33 -50
-93 -71 -134 -49 -98 -83 -134 -119 -128 -16 3 -100 46 -187 96 -87 50 -168
92 -179 93 -13 1 -195 -98 -417 -227 -500 -288 -483 -279 -511 -272 -13 4
-145 80 -294 169 -257 155 -270 165 -273 195 -2 18 1 41 7 51 5 10 153 101
328 202 175 100 330 191 345 201 15 11 29 19 31 19 3 0 172 96 376 214 204
118 379 217 389 219 25 7 30 5 205 -96z m998 -578 c107 -62 210 -121 229 -132
151 -85 271 -161 280 -177 11 -20 15 -836 4 -865 -15 -37 -49 -41 -336 -40
-274 0 -278 1 -300 23 -22 22 -23 28 -24 250 -1 138 -5 236 -12 248 -6 11 -87
63 -180 117 -224 129 -220 117 -119 302 24 44 72 134 106 200 79 148 96 173
124 178 12 2 25 5 28 6 3 0 93 -49 200 -110z m-1039 -556 c46 -27 90 -52 98
-56 8 -4 24 -13 35 -19 29 -19 91 -56 133 -80 185 -104 264 -153 274 -171 18
-32 19 -750 2 -793 -8 -23 -31 -43 -74 -68 -33 -20 -64 -36 -67 -36 -4 0 -14
-6 -22 -14 -9 -7 -41 -27 -71 -43 -30 -17 -137 -78 -238 -137 -101 -58 -194
-109 -206 -112 -25 -6 -53 6 -146 61 -30 18 -170 99 -310 180 -140 81 -257
151 -260 155 -3 4 -4 182 -4 395 1 284 5 393 14 410 12 22 634 389 675 397 27
6 67 -11 167 -69z m-1657 -11 c50 -29 97 -57 105 -62 132 -80 233 -140 236
-140 3 0 110 -67 116 -73 2 -1 5 -237 8 -525 l5 -523 55 -30 c30 -17 72 -41
92 -55 21 -13 40 -24 43 -24 2 0 51 -27 107 -60 57 -33 114 -67 128 -75 14 -8
121 -70 238 -137 118 -68 218 -131 224 -141 5 -10 9 -152 9 -334 0 -295 -1
-318 -19 -342 -33 -44 -58 -43 -152 7 -47 24 -92 50 -100 56 -8 6 -26 17 -39
24 -13 8 -38 22 -55 31 -17 10 -121 70 -231 135 -116 67 -212 116 -227 116
-31 0 -68 -28 -73 -55 -2 -11 -4 -199 -4 -418 l-1 -398 -25 -24 c-13 -14 -34
-25 -47 -25 -22 0 -514 284 -568 328 l-25 20 -1 508 c-1 486 -2 509 -20 522
-11 7 -206 121 -434 253 -228 132 -424 249 -435 260 -19 19 -20 33 -20 344 l0
324 24 25 c14 15 35 26 50 26 15 0 104 -45 201 -101 96 -56 191 -110 210 -121
19 -11 101 -58 181 -104 80 -46 156 -84 168 -84 28 0 71 43 72 72 0 13 0 199
1 415 0 420 1 424 51 442 30 11 49 4 152 -57z m-1404 -481 l24 -19 1 -324 c1
-191 -3 -332 -8 -344 -8 -18 -203 -138 -446 -274 -238 -134 -411 -237 -429
-257 -22 -24 -23 -29 -23 -254 l0 -230 -25 -24 c-26 -27 -16 -26 -280 -26
-328 0 -314 -1 -340 26 l-25 24 0 423 c1 317 4 427 13 439 12 16 59 47 137 91
25 14 139 80 255 148 116 67 226 131 245 141 19 11 42 24 50 29 8 6 186 109
395 230 225 129 391 219 406 220 15 0 37 -9 50 -19z m4572 -445 c49 -12 50
-25 50 -403 0 -299 -2 -355 -15 -375 -13 -19 -244 -157 -617 -369 -25 -15
-147 -85 -271 -156 -124 -71 -301 -174 -394 -227 -93 -54 -179 -101 -191 -106
-33 -12 -83 13 -91 47 -4 15 -7 166 -7 334 0 260 2 310 15 328 13 18 278 181
294 181 3 0 23 12 47 27 23 15 58 36 78 48 203 113 426 245 451 265 l31 26 1
170 c1 186 5 198 57 212 35 9 525 8 562 -2z m-4048 -775 c181 -106 332 -196
335 -201 3 -4 5 -183 5 -397 -1 -314 -4 -392 -15 -410 -12 -19 -184 -123 -544
-328 -122 -71 -168 -82 -205 -53 -9 7 -25 18 -36 24 -11 6 -112 64 -225 129
-113 65 -214 124 -225 130 -108 59 -139 81 -149 105 -8 19 -11 139 -10 391 1
200 2 372 3 382 1 17 57 77 72 77 6 0 67 35 159 90 8 5 114 65 235 135 162 92
226 124 245 121 14 -2 173 -90 355 -195z m-1449 -813 c35 -16 42 -52 42 -214
0 -84 4 -160 10 -170 6 -11 27 -29 49 -40 68 -37 338 -196 350 -206 6 -5 15
-22 18 -38 7 -31 8 -29 -204 -425 -45 -84 -81 -125 -109 -125 -10 0 -64 27
-122 61 -58 33 -128 73 -155 89 -28 15 -122 70 -210 120 -88 51 -180 104 -205
118 -25 13 -55 34 -68 47 l-24 22 1 356 c0 373 2 390 44 407 31 12 555 10 583
-2z m2251 -607 c117 -69 229 -135 249 -146 60 -33 95 -70 90 -97 -9 -46 -19
-58 -84 -95 -37 -21 -75 -42 -84 -48 -9 -5 -83 -48 -164 -95 -81 -47 -166 -96
-188 -109 -39 -23 -269 -155 -331 -191 -91 -52 -387 -222 -495 -285 -69 -40
-134 -75 -146 -79 -24 -7 -44 3 -269 134 -49 29 -115 66 -145 83 -158 87 -224
133 -236 163 -12 29 -9 38 72 190 47 87 106 197 131 244 50 95 75 120 113 115
27 -4 47 -14 170 -85 36 -21 84 -47 106 -58 l41 -21 54 28 c30 15 110 61 179
101 69 40 145 84 169 98 25 14 67 38 93 53 27 16 51 29 53 29 3 0 28 15 57 33
29 19 60 37 68 41 8 4 24 12 35 19 64 38 182 105 195 110 26 9 49 -2 267 -132z"/>
<path d="M4795 4655 c-168 -39 -290 -182 -300 -352 -14 -230 178 -423 405
-408 141 9 260 87 320 208 29 60 33 72 43 143 13 88 -32 217 -105 300 -81 92
-236 139 -363 109z"/>
<path d="M2064 3079 c-102 -13 -222 -89 -275 -175 -109 -177 -60 -411 111
-526 215 -144 498 -47 581 201 89 262 -139 536 -417 500z"/>
</g>
</svg>
