<?xml version="1.0" encoding="utf-8"?>
<!-- Generator: Adobe Illustrator 26.3.1, SVG Export Plug-In . SVG Version: 6.00 Build 0)  -->
<svg version="1.1" id="Livello_1" xmlns="http://www.w3.org/2000/svg" xmlns:xlink="http://www.w3.org/1999/xlink" x="0px" y="0px"
	 viewBox="0 0 296.6 60" style="enable-background:new 0 0 296.6 60;" xml:space="preserve">
<style type="text/css">
	.st0{fill:#FFFFFF;}
</style>
<g id="O__x2F__NERO">
	<path class="st0" d="M220.8,29.3c-1.3-0.3-2.2-0.5-2.2-1.2c0-0.7,0.7-1.1,1.8-1.1c1.4,0,2.7,0.6,3.4,1.3l1.2-2.1
		c-1.1-0.9-2.7-1.6-4.6-1.6c-3,0-4.7,1.7-4.7,3.6c0,2.7,2.6,3.2,4.5,3.6c1.3,0.3,2.3,0.6,2.3,1.4c0,0.7-0.6,1.2-1.9,1.2
		c-1.4,0-3.2-0.8-4-1.6l-1.3,2.1c1.2,1.1,3.2,1.8,5.1,1.8c3.2,0,5-1.6,5-3.7C225.4,30.3,222.8,29.7,220.8,29.3z M168.7,24.7
		c-3.5,0-6,2.7-6,6c0,3.7,2.6,6,6.1,6c1.8,0,3.6-0.5,4.8-1.6l-1.3-1.9c-0.8,0.7-2,1.1-3.1,1.1c-1.9,0-3.1-1.2-3.3-2.7h8.6V31
		C174.5,27.3,172.2,24.7,168.7,24.7z M165.9,29.7c0.1-1.1,0.9-2.6,2.8-2.6c2,0,2.8,1.5,2.8,2.6H165.9z M208.9,24.7
		c-1.4,0-2.7,0.6-3.5,1.7V25h-3v15.9h3V35c0.9,1.2,2.2,1.7,3.5,1.7c3,0,5.1-2.2,5.1-6C214,26.9,211.9,24.7,208.9,24.7z M208,34.1
		c-1,0-2.1-0.6-2.6-1.3v-4.1c0.5-0.8,1.6-1.3,2.6-1.3c1.7,0,2.9,1.4,2.9,3.4C210.9,32.8,209.7,34.1,208,34.1z M236.3,26.7
		c-0.9-1.3-2.4-2-3.9-2c-3,0-5.1,2.4-5.1,6c0,3.7,2.1,6,5.1,6c1.6,0,3-0.9,3.9-2v1.7h1.8V20.6h-1.8V26.7z M236.3,33.4
		c-0.7,1-2,1.8-3.4,1.8c-2.3,0-3.7-1.9-3.7-4.4s1.4-4.4,3.7-4.4c1.4,0,2.8,0.9,3.4,1.8V33.4z M250,26.7c-0.9-1.3-2.4-2-3.9-2
		c-3,0-5.1,2.4-5.1,6c0,3.7,2.1,6,5.1,6c1.6,0,3-0.9,3.9-2v1.7h1.8V25H250V26.7z M250,33.4c-0.7,1-2,1.8-3.4,1.8
		c-2.3,0-3.7-1.9-3.7-4.4s1.4-4.4,3.7-4.4c1.4,0,2.8,0.9,3.4,1.8V33.4z M263.3,25l-3.8,9.4l-3.8-9.4h-1.9l4.8,11.7l-0.8,1.7
		c-0.4,0.9-0.9,1.2-1.7,1.2c-0.3,0-0.7-0.1-1-0.2l-0.3,1.6c0.3,0.1,0.9,0.2,1.3,0.2c1.5,0,2.7-0.7,3.4-2.4l5.8-13.9H263.3z
		 M93.3,11.7L75.5,1.4c-0.3-0.1-0.6-0.1-0.9,0L56.8,11.7c-0.3,0.1-0.4,0.4-0.4,0.8v5.4c0,0.7-0.7,1.1-1.3,0.8l-4.7-2.7
		c-0.3-0.1-0.6-0.1-0.9,0L31.7,26.2c-0.3,0.1-0.4,0.4-0.4,0.8v20.6c0,0.3,0.2,0.6,0.4,0.8l17.8,10.3c0.3,0.1,0.6,0.1,0.9,0
		l17.8-10.3c0.3-0.1,0.4-0.4,0.4-0.8v-5.4c0-0.7,0.7-1.1,1.3-0.8l4.7,2.7c0.3,0.1,0.6,0.1,0.9,0l17.8-10.3c0.3-0.1,0.4-0.4,0.4-0.8
		V12.4C93.8,12.1,93.6,11.9,93.3,11.7z M61.8,12.4l12.9-7.5c0.2-0.1,0.5-0.1,0.7,0l5.6,3.3c0.3,0.2,0.4,0.6,0.3,0.9l-2.2,4.1
		c-0.2,0.4-0.6,0.5-1,0.3L75.4,12c-0.2-0.1-0.5-0.1-0.7,0l-7.6,4.4c-0.2,0.1-0.5,0.1-0.7,0l-4.6-2.8C61.3,13.3,61.3,12.6,61.8,12.4z
		 M50.4,30l6,3.5v0v6.9c0,0.3-0.2,0.6-0.4,0.8l-5.6,3.2c-0.3,0.1-0.6,0.1-0.9,0l-5.6-3.3c-0.3-0.1-0.4-0.4-0.4-0.8V34
		c0-0.3,0.2-0.6,0.4-0.8l5.6-3.2C49.8,29.9,50.1,29.9,50.4,30z M34.3,28.6c0-0.3,0.1-0.5,0.4-0.6l13-7.5c0.5-0.3,1.1,0.1,1.1,0.6
		v5.4c0,0.3-0.1,0.5-0.4,0.6l-7.6,4.4c-0.2,0.1-0.4,0.4-0.4,0.6v3.8c0,0.4-0.3,0.7-0.7,0.7H35c-0.4,0-0.7-0.3-0.7-0.7V28.6z
		 M41.1,50.1l-6.4-3.7c-0.2-0.1-0.4-0.4-0.4-0.6v-6.1c0-0.4,0.3-0.7,0.7-0.7h4.7c0.4,0,0.7,0.3,0.7,0.7v2.6c0,0.3,0.1,0.5,0.4,0.6
		l3.2,1.9c0.3,0.2,0.4,0.6,0.3,0.9l-2.2,4.1C41.9,50.2,41.5,50.3,41.1,50.1z M63.4,47.5L50.3,55c-0.2,0.1-0.5,0.1-0.7,0l-5.2-3
		c-0.3-0.2-0.4-0.6-0.3-0.9l2.2-4.1c0.2-0.4,0.6-0.5,1-0.3l2.2,1.3c0.2,0.1,0.5,0.1,0.7,0l7.7-4.4c0.2-0.1,0.5-0.1,0.7,0l4.6,2.8
		C63.8,46.6,63.8,47.2,63.4,47.5z M73.8,38.8c0,0.5-0.6,0.9-1.1,0.6l-6.1-3.5c-0.5-0.3-1.1,0.1-1.1,0.6v7c0,0.6-0.6,0.9-1.1,0.6
		l-4.7-2.8c-0.2-0.1-0.3-0.4-0.3-0.6v-8.9v0l-7.9-4.6c-0.2-0.1-0.4-0.4-0.4-0.6v-5.4c0-0.5,0.6-0.9,1.1-0.6l6.2,3.6
		c0.5,0.3,1.1-0.1,1.1-0.6v-7.1c0-0.6,0.6-0.9,1.1-0.6l4.7,2.8c0.2,0.1,0.3,0.4,0.3,0.6v9.1v0l7.9,4.5c0.2,0.1,0.4,0.4,0.4,0.6
		L73.8,38.8L73.8,38.8z M74.6,29.9l-6-3.5v0v-6.9c0-0.3,0.2-0.6,0.4-0.8l5.6-3.2c0.3-0.1,0.6-0.1,0.9,0l5.6,3.2
		c0.3,0.1,0.4,0.4,0.4,0.8v6.4c0,0.3-0.2,0.6-0.4,0.8l-5.6,3.2C75.2,30.1,74.9,30.1,74.6,29.9z M90.7,31.4c0,0.3-0.1,0.5-0.4,0.6
		l-13.1,7.5c-0.5,0.3-1.1-0.1-1.1-0.6v-5.4c0-0.3,0.1-0.5,0.4-0.6l7.6-4.4c0.2-0.1,0.4-0.4,0.4-0.6v-2.6c0-0.4,0.3-0.7,0.7-0.7H90
		c0.4,0,0.7,0.3,0.7,0.7V31.4z M90.7,21.4c0,0.4-0.3,0.7-0.7,0.7h-4.7c-0.4,0-0.7-0.3-0.7-0.7v-3.7c0-0.3-0.1-0.5-0.4-0.6l-2.8-1.6
		c-0.3-0.2-0.4-0.6-0.3-0.9l2.2-4.1c0.2-0.4,0.6-0.5,1-0.3l5.9,3.4c0.2,0.1,0.4,0.4,0.4,0.6V21.4z M144.5,33l-3-8h-3.3l4.6,11.5h3.3
		l4.6-11.5h-3.3L144.5,33z M131.9,24.7c-3.5,0-6,2.7-6,6c0,3.7,2.6,6,6.1,6c1.8,0,3.6-0.5,4.8-1.6l-1.3-1.9c-0.8,0.7-2,1.1-3.1,1.1
		c-1.9,0-3.1-1.2-3.3-2.7h8.6V31C137.7,27.3,135.4,24.7,131.9,24.7z M129.1,29.7c0.1-1.1,0.9-2.6,2.8-2.6c2,0,2.8,1.5,2.8,2.6H129.1
		z M182.2,27.4c1,0,1.9,0.5,2.5,1.2l2-1.8c-0.8-1.1-2.2-2.1-4.5-2.1c-3.5,0-6.1,2.5-6.1,6s2.6,6,6.1,6c2.4,0,3.8-1,4.5-2.1l-2-1.8
		c-0.6,0.8-1.4,1.2-2.5,1.2c-1.8,0-3.1-1.4-3.1-3.4C179.1,28.8,180.4,27.4,182.2,27.4z M156.7,29.3c-1.3-0.3-2.2-0.5-2.2-1.2
		c0-0.7,0.7-1.1,1.8-1.1c1.4,0,2.7,0.6,3.4,1.3l1.2-2.1c-1.1-0.9-2.7-1.6-4.6-1.6c-3,0-4.7,1.7-4.7,3.6c0,2.7,2.6,3.2,4.5,3.6
		c1.3,0.3,2.3,0.6,2.3,1.4c0,0.7-0.6,1.2-1.9,1.2c-1.4,0-3.2-0.8-4-1.6l-1.3,2.1c1.2,1.1,3.2,1.8,5.1,1.8c3.2,0,5-1.6,5-3.7
		C161.3,30.3,158.6,29.7,156.7,29.3z M120.6,26.5c-0.9-1.2-2.2-1.7-3.5-1.7c-2.9,0-5.1,2.3-5.1,6c0,3.8,2.2,6,5.1,6
		c1.4,0,2.6-0.6,3.5-1.7v1.5h3.1V20.6h-3.1V26.5z M120.6,32.8c-0.5,0.8-1.6,1.3-2.6,1.3c-1.7,0-2.9-1.4-2.9-3.4c0-2,1.2-3.4,2.9-3.4
		c1,0,2.1,0.6,2.6,1.3V32.8z M194,24.7c-3.8,0-6.1,2.8-6.1,6c0,3.3,2.3,6,6.1,6c3.8,0,6.1-2.8,6.1-6S197.8,24.7,194,24.7z M194,34.1
		c-1.9,0-2.9-1.6-2.9-3.4s1-3.4,2.9-3.4c1.9,0,3,1.6,3,3.4C196.9,32.6,195.9,34.1,194,34.1z M49.9,40.8c1.9,0,3.5-1.6,3.5-3.5
		s-1.6-3.5-3.5-3.5s-3.5,1.6-3.5,3.5S48,40.8,49.9,40.8z M75.1,19.3c-1.9,0-3.5,1.6-3.5,3.5s1.6,3.5,3.5,3.5c1.9,0,3.5-1.6,3.5-3.5
		S77.1,19.3,75.1,19.3z"/>
</g>
</svg>
